{
    "asset" : {
        "generator" : "Khronos glTF Blender I/O v1.6.16",
        "version" : "2.0"
    },
    "scene" : 0,
    "scenes" : [
        {
            "name" : "Scene",
            "nodes" : [
                0
            ]
        }
    ],
    "nodes" : [
        {
            "mesh" : 0,
            "name" : "RetopoGroup1",
            "rotation" : [
                0.7071068286895752,
                0,
                0,
                0.7071067094802856
            ],
            "scale" : [
                0.023263338953256607,
                0.023263338953256607,
                0.03710875287652016
            ],
            "translation" : [
                0,
                0.37669849395751953,
                0
            ]
        }
    ],
    "materials" : [
        {
            "doubleSided" : true,
            "name" : "Default",
            "pbrMetallicRoughness" : {
                "baseColorFactor" : [
                    1,
                    1,
                    1,
                    0
                ],
                "metallicFactor" : 0,
                "roughnessFactor" : 0.6837722063064575
            }
        }
    ],
    "meshes" : [
        {
            "extras" : {
                "targetNames" : [
                    "Stretch"
                ]
            },
            "name" : "RetopoGroup1",
            "primitives" : [
                {
                    "attributes" : {
                        "POSITION" : 0,
                        "NORMAL" : 1,
                        "TEXCOORD_0" : 2
                    },
                    "indices" : 3,
                    "material" : 0,
                    "targets" : [
                        {
                            "POSITION" : 4,
                            "NORMAL" : 5
                        }
                    ]
                }
            ],
            "weights" : [
                0
            ]
        }
    ],
    "accessors" : [
        {
            "bufferView" : 0,
            "componentType" : 5126,
            "count" : 2737,
            "max" : [
                82.68885803222656,
                70.98080444335938,
                9.977495193481445
            ],
            "min" : [
                -82.73931884765625,
                -93.24977111816406,
                -3.3566036224365234
            ],
            "type" : "VEC3"
        },
        {
            "bufferView" : 1,
            "componentType" : 5126,
            "count" : 2737,
            "type" : "VEC3"
        },
        {
            "bufferView" : 2,
            "componentType" : 5126,
            "count" : 2737,
            "type" : "VEC2"
        },
        {
            "bufferView" : 3,
            "componentType" : 5123,
            "count" : 4434,
            "type" : "SCALAR"
        },
        {
            "bufferView" : 4,
            "componentType" : 5126,
            "count" : 2737,
            "max" : [
                0,
                3.814697265625e-06,
                0.04897880554199219
            ],
            "min" : [
                0,
                -2.288818359375e-05,
                -85.20519256591797
            ],
            "type" : "VEC3"
        },
        {
            "bufferView" : 5,
            "componentType" : 5126,
            "count" : 2737,
            "type" : "VEC3"
        }
    ],
    "bufferViews" : [
        {
            "buffer" : 0,
            "byteLength" : 32844,
            "byteOffset" : 0
        },
        {
            "buffer" : 0,
            "byteLength" : 32844,
            "byteOffset" : 32844
        },
        {
            "buffer" : 0,
            "byteLength" : 21896,
            "byteOffset" : 65688
        },
        {
            "buffer" : 0,
            "byteLength" : 8868,
            "byteOffset" : 87584
        },
        {
            "buffer" : 0,
            "byteLength" : 32844,
            "byteOffset" : 96452
        },
        {
            "buffer" : 0,
            "byteLength" : 32844,
            "byteOffset" : 129296
        }
    ],
    "buffers" : [
        {
            "byteLength" : 162140,
            "uri" : "data:application/octet-stream;base64,"
        }
    ]
}
